<svg width="36" height="36" viewBox="0 0 36 36" fill="none" xmlns="http://www.w3.org/2000/svg">
<path d="M18 20.411C8.62899 20.411 1.03299 20.186 1.03299 26.838C1.03299 33.487 8.62899 35 18 35C27.371 35 34.967 33.487 34.967 26.838C34.967 20.187 27.371 20.411 18 20.411Z" fill="#C9D3DB"/>
<path d="M34.47 20.916C34.47 20.916 26.251 19.932 18 19.89C9.74901 19.932 1.53001 20.916 1.53001 20.916C0.717013 27.39 7.46701 30.057 18 30.057C28.533 30.057 35.283 27.39 34.47 20.916V20.916Z" fill="#66757F"/>
<path d="M33.886 18.328L2.03101 18.974C0.931013 18.974 0.0100127 21.203 1.17701 21.786C9.88501 24.494 16.885 27.234 16.885 27.234C17.847 27.766 18.172 27.768 19.135 27.237C19.135 27.237 28.801 23.369 35.01 21.744C35.891 21.514 34.985 18.328 33.886 18.328Z" fill="#C9D3DB"/>
<path d="M34.725 18.412C32.825 16.661 32.935 17.593 31.479 17.182C30.926 17.026 26.969 11.911 17.95 11.911H17.93C8.911 11.911 4.954 17.026 4.401 17.182C2.945 17.593 3.055 16.661 1.155 18.412C0.283 19.216 0.0469999 19.634 0.967 19.842C2.353 20.155 2.227 20.994 3.22 21.286C4.422 21.639 4.916 20.994 6.854 21.258C8.507 21.483 8.615 23.627 10.283 23.627C11.951 23.627 11.951 22.827 13.618 22.827C15.285 22.827 16.271 24.973 17.939 24.973C19.607 24.973 20.592 22.827 22.26 22.827C23.928 22.827 23.928 23.627 25.595 23.627C27.263 23.627 27.371 21.483 29.024 21.258C30.962 20.995 31.457 21.639 32.658 21.286C33.651 20.994 33.525 20.156 34.911 19.842C35.833 19.635 35.598 19.216 34.725 18.412V18.412Z" fill="#66757F"/>
<path d="M34.077 16.52C34.077 19.504 26.879 20.913 18 20.913C9.121 20.913 1.923 19.504 1.923 16.52C1.923 11.117 2.889 11.117 18 11.117C33.111 11.117 34.077 11.118 34.077 16.52Z" fill="#99AAB5"/>
<path d="M18 0.523987C8.62899 0.523987 1.03299 4.91499 1.03299 11.566C1.03299 17.691 8.62899 17.941 18 17.941C27.371 17.941 34.967 17.691 34.967 11.566C34.967 4.91399 27.371 0.523987 18 0.523987Z" fill="#C9D3DB"/>
<path d="M10.784 3.69499C10.286 3.37599 9.625 3.52199 9.307 4.01999C8.989 4.51799 9.134 5.17999 9.632 5.49699C10.13 5.81599 11.392 6.05399 11.711 5.55599C12.029 5.05799 11.282 4.01299 10.784 3.69499V3.69499ZM20.518 2.65999C19.956 2.84199 18.969 3.66599 19.152 4.22799C19.335 4.78999 20.616 4.87599 21.178 4.69399C21.74 4.51199 22.047 3.90799 21.864 3.34599C21.682 2.78499 21.078 2.47699 20.518 2.65999ZM31.427 9.69499C30.975 9.31499 29.842 9.91999 29.461 10.372C29.081 10.825 29.14 11.499 29.592 11.879C30.044 12.259 30.719 12.2 31.099 11.748C31.48 11.295 31.88 10.075 31.427 9.69499ZM27.784 4.69499C27.286 4.37699 26.625 4.52299 26.306 5.02099C25.988 5.51899 26.134 6.17999 26.632 6.49799C27.13 6.81699 28.392 7.05499 28.71 6.55699C29.029 6.05799 28.282 5.01299 27.784 4.69499ZM12.784 11.695C12.286 11.377 11.625 11.523 11.306 12.021C10.988 12.518 11.134 13.18 11.632 13.497C12.13 13.816 13.392 14.055 13.71 13.556C14.029 13.058 13.282 12.013 12.784 11.695V11.695ZM15.83 6.88699C15.494 7.37299 15.21 8.62599 15.697 8.96199C16.183 9.29799 17.254 8.58799 17.59 8.10199C17.926 7.61599 17.803 6.94999 17.317 6.61399C16.832 6.27799 16.165 6.40099 15.83 6.88699V6.88699ZM23.784 11.695C23.286 11.377 22.625 11.523 22.306 12.021C21.988 12.518 22.134 13.181 22.632 13.497C23.13 13.816 24.392 14.055 24.71 13.556C25.029 13.058 24.282 12.013 23.784 11.695V11.695ZM4.948 7.80799C4.554 8.24899 4.115 9.45599 4.556 9.84999C4.995 10.244 6.147 9.67599 6.541 9.23499C6.936 8.79499 6.898 8.11899 6.458 7.72399C6.019 7.32999 5.342 7.36799 4.948 7.80799V7.80799Z" fill="#99AAB5"/>
</svg>
