<svg width="36" height="36" viewBox="0 0 36 36" fill="none" xmlns="http://www.w3.org/2000/svg">
<path d="M29 11.06C29 17.499 24 18.499 24 24.5C24 27.598 20.877 27.859 18.5 27.859C16.447 27.859 11.914 27.08 11.914 24.498C11.914 18.5 7 17.5 7 11.06C7 5.02901 12.285 0.140015 18.083 0.140015C23.883 0.140015 29 5.02901 29 11.06Z" fill="#C9D3DB"/>
<path d="M22.167 32.5C22.167 33.328 19.933 35 18 35C16.067 35 13.833 33.328 13.833 32.5C13.833 31.672 16.066 32 18 32C19.933 32 22.167 31.672 22.167 32.5Z" fill="#CCD6DD"/>
<path d="M22.707 10.293C22.316 9.90201 21.684 9.90201 21.293 10.293L18 13.586L14.707 10.293C14.316 9.90201 13.684 9.90201 13.293 10.293C12.902 10.684 12.902 11.316 13.293 11.707L17 15.414V26C17 26.553 17.448 27 18 27C18.552 27 19 26.553 19 26V15.414L22.707 11.707C23.098 11.316 23.098 10.684 22.707 10.293V10.293Z" fill="#99AAB5"/>
<path d="M24 31C24 32.104 23.104 33 22 33H14C12.896 33 12 32.104 12 31V25H24V31Z" fill="#99AAB5"/>
<path d="M11.999 32C11.519 32 11.095 31.653 11.014 31.164C10.923 30.62 11.291 30.104 11.836 30.014L23.836 28.014C24.38 27.916 24.896 28.291 24.986 28.836C25.077 29.38 24.709 29.896 24.164 29.986L12.164 31.986C12.109 31.996 12.053 32 11.999 32V32ZM11.999 28C11.519 28 11.095 27.653 11.014 27.164C10.923 26.62 11.291 26.104 11.836 26.014L23.836 24.014C24.38 23.917 24.896 24.291 24.986 24.836C25.077 25.38 24.709 25.896 24.164 25.986L12.164 27.986C12.109 27.996 12.053 28 11.999 28V28Z" fill="#CCD6DD"/>
</svg>
