<svg width="36" height="36" viewBox="0 0 36 36" fill="none" xmlns="http://www.w3.org/2000/svg">
<path d="M18 36C27.9411 36 36 27.9411 36 18C36 8.05887 27.9411 0 18 0C8.05887 0 0 8.05887 0 18C0 27.9411 8.05887 36 18 36Z" fill="#99AAB5"/>
<path d="M18 32C25.732 32 32 25.732 32 18C32 10.268 25.732 4 18 4C10.268 4 4 10.268 4 18C4 25.732 10.268 32 18 32Z" fill="#E1E8ED"/>
<path d="M19 18C19 18.553 18.553 19 18 19C17.448 19 17 18.553 17 18V7C17 6.448 17.448 6 18 6C18.553 6 19 6.448 19 7V18Z" fill="#66757F"/>
<path d="M26.661 13C26.937 13.479 26.773 14.09 26.295 14.366L18.5 18.866C18.022 19.142 17.411 18.978 17.135 18.5C16.859 18.022 17.023 17.41 17.5 17.134L25.295 12.634C25.773 12.358 26.385 12.522 26.661 13Z" fill="#66757F"/>
</svg>
