<svg width="36" height="36" viewBox="0 0 36 36" fill="none" xmlns="http://www.w3.org/2000/svg">
<path d="M36 32C36 34.209 34.209 36 32 36H4C1.791 36 0 34.209 0 32V4C0 1.791 1.791 0 4 0H32C34.209 0 36 1.791 36 4V32Z" fill="#66757F"/>
<path d="M12.83 27.757L13.571 26.903C14.065 26.333 14.407 26.029 15.015 26.029C15.566 26.029 16.06 26.504 16.06 27.225C16.06 27.738 15.623 28.346 15.015 29.03L14.54 29.544L15.832 31.006C16.098 31.311 16.25 31.52 16.25 31.956C16.25 32.602 15.642 33.228 14.92 33.228C14.483 33.228 14.198 33.095 13.913 32.791L12.602 31.423C11.367 32.506 10.113 33.228 8.423 33.228C5.877 33.228 3.769 31.785 3.769 29.125C3.769 27.244 5.08 25.857 6.638 25.002C5.897 24.262 5.384 23.501 5.384 22.437C5.384 20.271 7.417 19.246 9.373 19.246C11.083 19.246 13.249 20.215 13.249 22.228C13.249 23.747 12.052 24.925 10.836 25.552L12.83 27.757V27.757ZM8.137 26.56C7.282 27.112 6.503 27.776 6.503 28.859C6.503 30.056 7.32 30.721 8.479 30.721C9.504 30.721 10.169 30.303 10.892 29.619L8.137 26.56ZM9.372 21.412C8.878 21.412 8.232 21.791 8.232 22.361C8.232 22.931 8.498 23.273 9.239 23.995C9.809 23.71 10.626 23.197 10.626 22.514C10.626 21.658 9.866 21.412 9.372 21.412ZM19.73 22.323C19.73 20.671 20.964 19.246 22.656 19.246C24.345 19.246 25.581 20.671 25.581 22.323C25.581 23.976 24.346 25.382 22.656 25.382C20.965 25.382 19.73 23.977 19.73 22.323V22.323ZM23.644 22.323C23.644 21.716 23.284 21.183 22.657 21.183C22.03 21.183 21.669 21.715 21.669 22.323C21.669 22.931 22.03 23.444 22.657 23.444C23.283 23.444 23.644 22.932 23.644 22.323ZM28.26 19.74C28.507 19.265 28.698 19.132 29.134 19.132C29.723 19.132 30.254 19.608 30.254 20.195C30.254 20.347 30.254 20.48 30.103 20.765L23.719 32.714C23.435 33.113 23.32 33.341 22.865 33.341C22.371 33.341 21.781 32.866 21.781 32.296C21.781 32.011 21.895 31.745 21.971 31.593L28.26 19.74V19.74ZM26.417 30.169C26.417 28.517 27.652 27.092 29.343 27.092C31.033 27.092 32.268 28.517 32.268 30.169C32.268 31.822 31.034 33.228 29.343 33.228C27.652 33.228 26.417 31.822 26.417 30.169V30.169ZM30.33 30.169C30.33 29.562 29.97 29.029 29.343 29.029C28.716 29.029 28.356 29.561 28.356 30.169C28.356 30.777 28.716 31.29 29.343 31.29C29.97 31.29 30.33 30.777 30.33 30.169ZM3 3H17V6H3V3ZM17 9H3V12H8V17H12V12H17V9ZM32 5L27 3V11.203C26.462 11.077 25.81 11 25 11C23 11 21 13 21 15C21 16 22 17 24 17C27 17 29 15 29 13V6.8L32 8V5Z" fill="white"/>
</svg>
