<svg width="36" height="36" viewBox="0 0 36 36" fill="none" xmlns="http://www.w3.org/2000/svg">
<path d="M34 33C34 34.104 33.104 35 32 35H29C27.896 35 27 34.104 27 33V25C27 23.896 27.896 23 29 23H32C33.104 23 34 23.896 34 25V33ZM9 33C9 34.104 8.104 35 7 35H4C2.896 35 2 34.104 2 33V25C2 23.896 2.896 23 4 23H7C8.104 23 9 23.896 9 25V33Z" fill="#292F33"/>
<path d="M9 5C13 4 23 4 27 5C30.881 5.97 32 16 32 16C32 16 34 16 34 20V28C34 28 33.881 31.03 30 32C26 33 23 33 18 33C13 33 10 33 6 32C2.12 31.03 2 28 2 28V20C2 20 2 16 4 16C4 16 5.12 5.97 9 5Z" fill="#C9D3DB"/>
<path d="M18 15C21.905 15 26.623 15.2 30 15.561L29 10C28 7 22 7 18 7C14 7 8 7 7 10L6 15.561C9.377 15.2 14.095 15 18 15Z" fill="#66757F"/>
<path d="M5 15.5C5 16.329 4.329 17 3.5 17H1.5C0.671 17 0 16.329 0 15.5C0 14.671 0.671 14 1.5 14H3.5C4.329 14 5 14.671 5 15.5ZM31 15.5C31 16.329 31.672 17 32.5 17H34.5C35.328 17 36 16.329 36 15.5C36 14.671 35.328 14 34.5 14H32.5C31.672 14 31 14.671 31 15.5Z" fill="#C9D3DB"/>
<path d="M11 23C11 24.657 9.657 26 8 26H7C5.343 26 4 24.657 4 23C4 21.343 5.343 20 7 20H8C9.657 20 11 21.343 11 23ZM32 23C32 24.657 30.656 26 29 26H28C26.344 26 25 24.657 25 23C25 21.343 26.344 20 28 20H29C30.656 20 32 21.343 32 23Z" fill="#99AAB5"/>
<path d="M12.001 22C11.678 22 11.361 21.844 11.168 21.555C9.426 18.941 4.849 17.99 4.803 17.981C4.262 17.872 3.911 17.345 4.02 16.803C4.129 16.262 4.652 15.912 5.196 16.02C5.417 16.064 10.627 17.139 12.832 20.446C13.138 20.906 13.014 21.526 12.555 21.833C12.384 21.945 12.191 22 12.001 22ZM23.999 22C23.809 22 23.616 21.945 23.445 21.832C22.985 21.525 22.861 20.905 23.168 20.445C25.372 17.138 30.583 16.063 30.804 16.019C31.344 15.913 31.871 16.261 31.98 16.802C32.089 17.344 31.739 17.87 31.198 17.98C31.152 17.989 26.575 18.94 24.833 21.554C24.64 21.844 24.322 22 23.999 22V22Z" fill="#66757F"/>
<path d="M18 29C12.337 29 5.36101 28.775 4.29301 27.707C3.90201 27.316 3.90201 26.684 4.29301 26.293C4.63701 25.948 5.17001 25.907 5.56001 26.171C5.79201 26.271 7.84501 27 18 27C28.155 27 30.208 26.271 30.44 26.171C30.831 25.907 31.362 25.948 31.707 26.293C32.098 26.684 32.098 27.316 31.707 27.707C30.639 28.775 23.663 29 18 29Z" fill="#66757F"/>
<path d="M25 29.5C25 31 21.866 32 18 32C14.134 32 11 31 11 29.5C11 28.672 14.134 29 18 29C21.866 29 25 28.672 25 29.5Z" fill="#66757F"/>
</svg>
